<?xml version="1.0" encoding="UTF-8"?>
<svg version="1.1" viewBox="0 0 1200 1200" width="300" height="300" xmlns="http://www.w3.org/2000/svg">
<path transform="translate(167,612)" d="m0 0h26l1 2v42h26v-43l3-1h22l2 1v63l-2 11-6 12-9 9-7 4-9 2h-13l-9-2-8-4-5-4-7-10-4-9-1-5z" fill="#9E5373"/>
<path transform="translate(200,486)" d="m0 0h15l10 3 11 8 7 10 3 10 1 27v41l-1 2h-26v-43h-26v43h-27v-66l2-9 7-12 9-8 11-5z" fill="#D60F32"/>
<path transform="translate(629,554)" d="m0 0h15l4 5 9 19 8 20 1 2 5-12 11-24 4-8 7-2h9l2 2 5 60v16h-17l-2-37v-11h-2l-3 9-11 25-3 5h-9l-5-5-13-31-3-3v17l-1 29-2 2h-15l-1-5 2-38 3-27 1-7z" fill="#D50F33"/>
<path transform="translate(558,554)" d="m0 0h22l13 4 7 6 4 9v13l-4 8-7 5 1 6 13 21 1 6h-18l-7-10-9-16-11-3v29h-17l-1-1v-74l4-2zm5 14v21l1 1h10l8-2 4-5 1-6-3-5-5-3-7-1z" fill="#D60E32"/>
<path transform="translate(375,554)" d="m0 0 17 1 1 28 29 1v-29l1-1h10l7 2v31l-1 45h-16l-1-1-1-31h-28v32h-18z" fill="#D60E32"/>
<path transform="translate(754,554)" d="m0 0h12l4 4 11 23 15 40 3 7v4h-18l-3-8-2-7-32-1-3 15-2 1h-16l-1-3 8-23 8-21 6-15 7-13zm5 20-7 18-2 9 9 1h10l1-2-7-22-2-4z" fill="#D50F33"/>
<path transform="translate(493,554)" d="m0 0h7l3 3 18 45 7 18 2 7v5h-17l-3-8-1-8h-32l-6 16h-16l-1-3 7-19 9-25 11-25 2-4zm-2 21-4 9-5 14v3l17 1 3-1-1-6-6-17-2-3z" fill="#D50F33"/>
<path transform="translate(306,554)" d="m0 0h27l12 3 8 6 4 8 1 4v9l-3 10-4 5-8 4-13 3-13 1v25h-18l-1-2 1-74zm11 14-1 1v21l4 2 14-2 5-4 1-2v-8l-2-4-7-3z" fill="#D60E32"/>
<path transform="translate(836,552)" d="m0 0 16 2 9 3-3 13-3 1-16-3-7 1-4 5 2 5 12 6 12 5 8 7 3 7v13l-4 8-6 5-10 3-5 1h-13l-16-4-1-1v-7l2-6 10 1 6 1h12l5-3h2v-6l-7-6-19-8-8-7-3-7v-7l3-10 4-5 12-6z" fill="#D50F33"/>
<path transform="translate(922,555)" d="m0 0h52v14l-34 1-1 15h31v14l-1 1h-30l1 31-1 1h-16l-1-1z" fill="#D60E32"/>
<path transform="translate(984,555)" d="m0 0h64v13l-1 1-22 1-1 61-1 1h-16v-63h-23z" fill="#D70D31"/>
<path transform="translate(153,609)" d="m0 0 5 3 1 3v45l1 25 3 10 6 10 7 7 10 6 7 3 5 1h16l12-3 10-6 10-10 5-9 3-10 1-6 1-66 2-1 3 1 1 2 1 9-1 59-2 10-4 9-8 11-10 9-12 6-15 3h-12l-12-3-12-6-12-11-6-10-4-10-1-8v-72z" fill="#A25A79"/>
<path transform="translate(195,471)" d="m0 0h24l12 4 10 6 10 10 7 12 3 10 1 8v66h-6l-1-65-3-14-6-11-9-10-11-7-6-2-7-1h-13l-11 3-8 4-10 9-7 9-4 10-1 10v65l-1 1h-6v-73l4-12 6-10 9-10 10-7 10-4z" fill="#D31336"/>
<path transform="translate(883,554)" d="m0 0 17 1v77h-17l-1-1v-74z" fill="#D60F32"/>
</svg>
